<svg width="36" height="36" viewBox="0 0 36 36" fill="none" xmlns="http://www.w3.org/2000/svg">
<path fill-rule="evenodd" clip-rule="evenodd" d="M18.0003 3.59401C9.69901 3.59401 3.59361 9.69877 3.59361 18C3.59361 26.3013 9.69901 32.406 18.0003 32.406C26.3015 32.406 32.4056 26.3013 32.4056 18C32.4056 9.69877 26.3015 3.59401 18.0003 3.59401ZM0.822266 18C0.822266 8.51288 8.51312 0.822021 18.0003 0.822021C27.4874 0.822021 35.1783 8.51288 35.1783 18C35.1783 27.4872 27.4874 35.178 18.0003 35.178C8.51312 35.178 0.822266 27.4872 0.822266 18Z" fill="white"/>
<path fill-rule="evenodd" clip-rule="evenodd" d="M18.0003 10.545C15.6286 10.545 14.1361 12.0497 14.1361 14.4215C14.1361 16.7933 15.6286 18.294 18.0003 18.294C20.3721 18.294 21.8851 16.7933 21.8851 14.4215C21.8851 12.0497 20.3721 10.545 18.0003 10.545ZM11.5586 14.4215C11.5586 10.8638 14.4427 7.97974 18.0003 7.97974C21.558 7.97974 24.4421 10.8638 24.4421 14.4215C24.4421 17.9792 21.558 20.8632 18.0003 20.8632C14.4427 20.8632 11.5586 17.9792 11.5586 14.4215Z" fill="white"/>
<path fill-rule="evenodd" clip-rule="evenodd" d="M10.6678 24.3042C12.7909 22.9929 15.3673 22.2952 17.9984 22.2952C20.6294 22.2952 23.2059 22.9929 25.3289 24.3042C27.3497 25.5523 28.8745 27.3057 29.6415 29.3456C29.8757 29.9683 29.6574 30.637 29.1755 31.022C22.6392 36.2446 13.3575 36.2446 6.82123 31.022C6.33932 30.637 6.12103 29.9683 6.35523 29.3456C7.12231 27.3057 8.64711 25.5523 10.6678 24.3042ZM17.9984 24.6583C15.7359 24.6583 13.6247 25.3287 11.8654 26.4153C10.3587 27.3459 9.50927 28.4714 8.88184 29.8298C14.4765 34.0207 21.7188 34.0207 27.3135 29.8298C26.686 28.4714 25.6708 27.3459 24.1642 26.4153C22.4049 25.3287 20.2609 24.6583 17.9984 24.6583Z" fill="white"/>
</svg>
