<svg width="32" height="32" viewBox="0 0 32 32" fill="none" xmlns="http://www.w3.org/2000/svg">
<path d="M7.49954 29.6667C6.78843 29.6667 6.17177 29.4055 5.64954 28.8833C5.12732 28.3611 4.86621 27.7333 4.86621 27V10.2333C4.86621 9.52221 5.12732 8.90555 5.64954 8.38332C6.17177 7.8611 6.78843 7.59999 7.49954 7.59999H10.6662V7.26666C10.7107 5.79999 11.244 4.5611 12.2662 3.54999C13.2884 2.53888 14.5329 2.03333 15.9995 2.03333C17.4662 2.03333 18.7107 2.53888 19.7329 3.54999C20.7551 4.5611 21.2884 5.79999 21.3329 7.26666V7.59999H24.4995C25.2329 7.59999 25.8607 7.8611 26.3829 8.38332C26.9051 8.90555 27.1662 9.52221 27.1662 10.2333V27C27.1662 27.7333 26.9051 28.3611 26.3829 28.8833C25.8607 29.4055 25.2329 29.6667 24.4995 29.6667H7.49954ZM7.49954 27H24.4995V10.2333H21.3329V12.9C21.3329 13.2778 21.2051 13.5944 20.9495 13.85C20.694 14.1055 20.3773 14.2333 19.9995 14.2333C19.6218 14.2333 19.3051 14.1055 19.0495 13.85C18.794 13.5944 18.6662 13.2778 18.6662 12.9V10.2333H13.3329V12.9C13.3329 13.2778 13.2051 13.5944 12.9495 13.85C12.694 14.1055 12.3773 14.2333 11.9995 14.2333C11.6218 14.2333 11.3051 14.1055 11.0495 13.85C10.794 13.5944 10.6662 13.2778 10.6662 12.9V10.2333H7.49954V27ZM13.3329 7.59999H18.6662V7.26666C18.644 6.53332 18.3773 5.92221 17.8662 5.43332C17.3551 4.94444 16.7329 4.69999 15.9995 4.69999C15.2662 4.69999 14.644 4.94444 14.1329 5.43332C13.6218 5.92221 13.3551 6.53332 13.3329 7.26666V7.59999ZM7.49954 27V10.2333V27Z" fill="white"/>
</svg>
